#tb 0: 12/185
#media_type 0: video
#codec_id 0: rawvideo
#dimensions 0: 1368x768
#sar 0: 0/1
0,          0,          0,        1,  3151872, 0x90aa1943
0,          3,          3,        1,  3151872, 0xbbe670de
0,          4,          4,        1,  3151872, 0x818d8c1c
0,          5,          5,        1,  3151872, 0xc2cf510d
0,          6,          6,        1,  3151872, 0xff904cda
0,          7,          7,        1,  3151872, 0xc843fce8
0,          8,          8,        1,  3151872, 0xbfc24e6e
0,          9,          9,        1,  3151872, 0x5eea45bc
0,         10,         10,        1,  3151872, 0x86634b52
0,         11,         11,        1,  3151872, 0x86634b52
0,         12,         12,        1,  3151872, 0x86634b52
0,         13,         13,        1,  3151872, 0x86634b52
0,         14,         14,        1,  3151872, 0x86634b52
0,         15,         15,        1,  3151872, 0x86634b52
0,         16,         16,        1,  3151872, 0x86634b52
0,         17,         17,        1,  3151872, 0xaf542632
0,         18,         18,        1,  3151872, 0x8f16cdaf
